<svg width="33" height="33" viewBox="0 0 33 33" fill="none" xmlns="http://www.w3.org/2000/svg">
<path fill-rule="evenodd" clip-rule="evenodd" d="M15.4665 0C14.5101 0 13.6812 0.662068 13.4697 1.59477L12.8962 4.12436C11.9833 4.38986 11.1124 4.75343 10.2959 5.20267L8.10146 3.81936C7.29243 3.30938 6.23811 3.42739 5.56185 4.10362L4.10192 5.56357C3.42569 6.23981 3.30766 7.29413 3.81766 8.10316L5.20147 10.2984C4.7526 11.1147 4.38936 11.9853 4.12413 12.8979L1.59476 13.4713C0.66207 13.6828 0 14.5117 0 15.4681V17.5327C0 18.4891 0.66207 19.3181 1.59476 19.5295L4.12442 20.103C4.38982 21.0159 4.75328 21.8867 5.20237 22.7032L3.8188 24.8981C3.30879 25.707 3.42682 26.7613 4.10305 27.4377L5.56301 28.8976C6.23924 29.5737 7.29356 29.6918 8.10259 29.1818L10.2976 27.7982C11.1136 28.247 11.9839 28.6102 12.8962 28.8754L13.4697 31.4051C13.6812 32.3378 14.5101 33 15.4665 33H17.5311C18.4875 33 19.3165 32.3378 19.5279 31.4051L20.1012 28.8764C21.0143 28.6112 21.8853 28.2477 22.7021 27.7987L24.8969 29.1823C25.7058 29.6923 26.7601 29.5742 27.4365 28.8981L28.8964 27.4381C29.5726 26.7618 29.6906 25.7074 29.1807 24.8986L27.7976 22.7044C28.247 21.8876 28.6108 21.0162 28.8762 20.1029L31.4052 19.5295C32.3378 19.3181 33 18.4891 33 17.5327V15.4681C33 14.5117 32.3378 13.6828 31.4052 13.4713L28.8764 12.8981C28.6112 11.9849 28.2478 11.1138 27.7985 10.2971L29.1816 8.10268C29.6918 7.29364 29.5738 6.23933 28.8974 5.56307L27.4374 4.10314C26.7613 3.4269 25.707 3.30888 24.8979 3.81888L22.7037 5.20209C21.8865 4.75259 21.0149 4.38889 20.1012 4.12345L19.5279 1.59477C19.3165 0.662068 18.4875 0 17.5311 0H15.4665ZM10.2866 7.61717C11.5554 6.72804 13.0233 6.10381 14.6101 5.82476L15.4665 2.04745H17.5311L18.3874 5.8242C19.975 6.10292 21.4437 6.72715 22.7131 7.61651L25.9898 5.5509L27.4497 7.01083L25.384 10.2877C26.273 11.5566 26.8972 13.0248 27.1759 14.6119L30.9526 15.4681V17.5327L27.1756 18.389C26.8967 19.9763 26.2723 21.4447 25.383 22.7136L27.4485 25.9905L25.9886 27.4502L22.7114 25.3844C21.4426 26.2733 19.9744 26.8971 18.3874 27.1758L17.5311 30.9525H15.4665L14.6101 27.1751C13.0239 26.8962 11.5565 26.2723 10.2882 25.3837L7.01077 27.4497L5.55082 25.9897L7.61677 22.7126C6.72786 21.4438 6.10382 19.9759 5.82493 18.3891L2.04744 17.5327V15.4681L5.82477 14.6118C6.10346 13.0252 6.72721 11.5575 7.61575 10.2888L5.54969 7.01134L7.00964 5.55141L10.2866 7.61717ZM20.1732 16.4996C20.1732 18.5283 18.5287 20.1728 16.5001 20.1728C14.4715 20.1728 12.8269 18.5283 12.8269 16.4996C12.8269 14.471 14.4715 12.8265 16.5001 12.8265C18.5287 12.8265 20.1732 14.471 20.1732 16.4996ZM22.3411 16.4996C22.3411 19.7256 19.726 22.3407 16.5001 22.3407C13.2742 22.3407 10.659 19.7256 10.659 16.4996C10.659 13.2737 13.2742 10.6586 16.5001 10.6586C19.726 10.6586 22.3411 13.2737 22.3411 16.4996Z" fill="#ADADAD"/>
</svg>
