<svg width="45" height="38" viewBox="0 0 45 38" fill="none" xmlns="http://www.w3.org/2000/svg">
<path d="M2 3.87056V15.1206M2 15.1206H13.25M2 15.1206L10.7 6.94556C12.7152 4.9294 15.2082 3.45658 17.9465 2.66451C20.6848 1.87245 23.5792 1.78697 26.3595 2.41605C29.1398 3.04512 31.7154 4.36825 33.846 6.26197C35.9766 8.15569 37.5928 10.5583 38.5437 13.2456M43.25 33.8706V22.6206M43.25 22.6206H32M43.25 22.6206L34.55 30.7956C32.5348 32.8117 30.0418 34.2846 27.3035 35.0766C24.5652 35.8687 21.6708 35.9542 18.8905 35.3251C16.1102 34.696 13.5346 33.3729 11.404 31.4792C9.27337 29.5854 7.65719 27.1828 6.70625 24.4956" stroke="#202020" stroke-width="3" stroke-linecap="round" stroke-linejoin="round"/>
</svg>
