<svg width="44" height="36" viewBox="0 0 44 36" fill="none" xmlns="http://www.w3.org/2000/svg">
<path d="M1 2.87056V14.1206M1 14.1206H12.25M1 14.1206L9.7 5.94556C11.7152 3.9294 14.2082 2.45658 16.9465 1.66451C19.6848 0.872454 22.5792 0.786973 25.3595 1.41605C28.1398 2.04512 30.7154 3.36825 32.846 5.26197C34.9766 7.15569 36.5928 9.55829 37.5437 12.2456M42.25 32.8706V21.6206M42.25 21.6206H31M42.25 21.6206L33.55 29.7956C31.5348 31.8117 29.0418 33.2846 26.3035 34.0766C23.5652 34.8687 20.6708 34.9542 17.8905 34.3251C15.1102 33.696 12.5346 32.3729 10.404 30.4792C8.27337 28.5854 6.65719 26.1828 5.70625 23.4956" stroke="#202020" stroke-width="2" stroke-linecap="round" stroke-linejoin="round"/>
</svg>
