<svg width="48" height="48" viewBox="0 0 48 48" fill="none" xmlns="http://www.w3.org/2000/svg">
<path d="M38.0001 33.8C40.4304 33.3065 42.5907 31.9276 44.0615 29.9309C45.5323 27.9343 46.2088 25.4623 45.9595 22.995C45.7103 20.5276 44.5532 18.2409 42.7128 16.5787C40.8724 14.9166 38.48 13.9975 36.0001 14H33.4801C32.8175 11.4346 31.5282 9.07397 29.7279 7.12996C27.9276 5.18595 25.6728 3.71945 23.1658 2.86211C20.6587 2.00478 17.9781 1.78345 15.3644 2.218C12.7507 2.65256 10.2859 3.72938 8.19112 5.35181C6.0964 6.97423 4.43736 9.09146 3.36298 11.5134C2.2886 13.9354 1.83249 16.5862 2.03562 19.228C2.23874 21.8697 3.09474 24.4197 4.52676 26.6489C5.95877 28.8782 7.92198 30.7169 10.2401 32M26.0001 22L18.0001 34H30.0001L22.0001 46" stroke="#202020" stroke-width="2" stroke-linecap="round" stroke-linejoin="round"/>
</svg>
